<svg xmlns="http://www.w3.org/2000/svg" width="8" height="13" viewBox="0 0 8 13"><defs><linearGradient id="r3m5c" x1="4.01" x2="3.99" y1="5.01" y2="-.01" gradientUnits="userSpaceOnUse"><stop offset="0" stop-opacity=".96"/><stop offset=".5" stop-color="#d0d0d0" stop-opacity=".96"/><stop offset="1" stop-color="#9e9e9e" stop-opacity=".96"/></linearGradient><filter id="r3m5a" width="200%" height="200%" x="-50%" y="-50%"><feGaussianBlur in="SourceGraphic" result="FeGaussianBlur1258Out" stdDeviation="6.5 6.5"/></filter><mask id="r3m5b"><path fill="#fff" d="M1.136 5.006L-.01 3.892 4-.01l1.146 1.114L8.01 3.892 6.864 5.006 4 2.22z"/></mask><filter id="r3m5d" width="200%" height="200%" x="-50%" y="-50%"><feGaussianBlur in="SourceGraphic" result="FeGaussianBlur1265Out" stdDeviation="0 0"/></filter><mask id="r3m5e"><path fill="#fff" d="M1.136 5.006L-.01 3.892 4-.01l1.146 1.114L8.01 3.892 6.864 5.006 4 2.22z"/></mask><linearGradient id="r3m5h" x1="4.01" x2="3.99" y1="13.01" y2="7.99" gradientUnits="userSpaceOnUse"><stop offset="0" stop-opacity=".96"/><stop offset=".5" stop-color="#d0d0d0" stop-opacity=".96"/><stop offset="1" stop-color="#9e9e9e" stop-opacity=".96"/></linearGradient><filter id="r3m5f" width="200%" height="200%" x="-50%" y="-50%"><feGaussianBlur in="SourceGraphic" result="FeGaussianBlur1292Out" stdDeviation="6.5 6.5"/></filter><mask id="r3m5g"><path fill="#fff" d="M4 13.01L-.01 9.108l1.146-1.114L4 10.78l2.864-2.786L8.01 9.108l-3.437 3.345z"/></mask><filter id="r3m5i" width="200%" height="200%" x="-50%" y="-50%"><feGaussianBlur in="SourceGraphic" result="FeGaussianBlur1299Out" stdDeviation="0 0"/></filter><mask id="r3m5j"><path fill="#fff" d="M4 13.01L-.01 9.108l1.146-1.114L4 10.78l2.864-2.786L8.01 9.108l-3.437 3.345z"/></mask><linearGradient id="r3m5m" x1="4.01" x2="3.99" y1="5.01" y2="-.01" gradientUnits="userSpaceOnUse"><stop offset="0" stop-opacity=".96"/><stop offset=".5" stop-color="#d0d0d0" stop-opacity=".96"/><stop offset="1" stop-color="#9e9e9e" stop-opacity=".96"/></linearGradient><filter id="r3m5k" width="200%" height="200%" x="-50%" y="-50%"><feGaussianBlur in="SourceGraphic" result="FeGaussianBlur1326Out" stdDeviation="6.5 6.5"/></filter><mask id="r3m5l"><path fill="#fff" d="M1.136 5.006L-.01 3.892 4-.01l1.146 1.114L8.01 3.892 6.864 5.006 4 2.22z"/></mask><filter id="r3m5n" width="200%" height="200%" x="-50%" y="-50%"><feGaussianBlur in="SourceGraphic" result="FeGaussianBlur1333Out" stdDeviation="0 0"/></filter><mask id="r3m5o"><path fill="#fff" d="M1.136 5.006L-.01 3.892 4-.01l1.146 1.114L8.01 3.892 6.864 5.006 4 2.22z"/></mask><linearGradient id="r3m5r" x1="4.01" x2="3.99" y1="13.01" y2="7.99" gradientUnits="userSpaceOnUse"><stop offset="0" stop-opacity=".96"/><stop offset=".5" stop-color="#d0d0d0" stop-opacity=".96"/><stop offset="1" stop-color="#9e9e9e" stop-opacity=".96"/></linearGradient><filter id="r3m5p" width="200%" height="200%" x="-50%" y="-50%"><feGaussianBlur in="SourceGraphic" result="FeGaussianBlur1360Out" stdDeviation="6.5 6.5"/></filter><mask id="r3m5q"><path fill="#fff" d="M4 13.01L-.01 9.108l1.146-1.114L4 10.78l2.864-2.786L8.01 9.108l-3.437 3.345z"/></mask><filter id="r3m5s" width="200%" height="200%" x="-50%" y="-50%"><feGaussianBlur in="SourceGraphic" result="FeGaussianBlur1367Out" stdDeviation="0 0"/></filter><mask id="r3m5t"><path fill="#fff" d="M4 13.01L-.01 9.108l1.146-1.114L4 10.78l2.864-2.786L8.01 9.108l-3.437 3.345z"/></mask></defs><g><g><path fill="#fff" fill-opacity=".24" d="M-13 18v-31h34v31zM4 2.22l2.864 2.786L8.01 3.892 5.146 1.105 4-.01-.01 3.892l1.146 1.114z" filter="url(#r3m5a)" mask="url(&quot;#r3m5b&quot;)"/><path fill="#bb9c66" d="M1.136 5.006L-.01 3.892 4-.01l1.146 1.114L8.01 3.892 6.864 5.006 4 2.22z"/><path fill="url(#r3m5c)" d="M1.136 5.006L-.01 3.892 4-.01l1.146 1.114L8.01 3.892 6.864 5.006 4 2.22z"/><path fill="#fff" fill-opacity=".24" d="M-13 18v-31h34v31zM4 2.22l2.864 2.786L8.01 3.892 5.146 1.105 4-.01-.01 3.892l1.146 1.114z" filter="url(#r3m5a)" mask="url(&quot;#r3m5b&quot;)"/><path fill="#fff1d8" fill-opacity=".44" d="M0 6V4.901L1.13 6zm0-7h8v5.882L5.146 2.105 4 .99 0 4.882zm8 7H6.87L8 4.902zM4 3.22L6.858 6H1.142zm2.864 2.786L6.871 6h-.013zM8.01 4.892L8 4.882v.02zm-8.02 0l.01.01v-.02zm1.146 1.114L1.142 6H1.13z" filter="url(#r3m5d)" mask="url(&quot;#r3m5e&quot;)"/></g><g><path fill="#fff" fill-opacity=".24" d="M-13 26V-5h34v31zM4.573 12.452L8.01 9.109 6.864 7.994 4 10.78 1.136 7.994-.01 9.108 4 13.01z" filter="url(#r3m5f)" mask="url(&quot;#r3m5g&quot;)"/><path fill="#bb9c66" d="M4 13.01L-.01 9.108l1.146-1.114L4 10.78l2.864-2.786L8.01 9.108l-3.437 3.345z"/><path fill="url(#r3m5h)" d="M4 13.01L-.01 9.108l1.146-1.114L4 10.78l2.864-2.786L8.01 9.108l-3.437 3.345z"/><path fill="#fff" fill-opacity=".24" d="M-13 26V-5h34v31zM4.573 12.452L8.01 9.109 6.864 7.994 4 10.78 1.136 7.994-.01 9.108 4 13.01z" filter="url(#r3m5f)" mask="url(&quot;#r3m5g&quot;)"/><path fill="#fff1d8" fill-opacity=".44" d="M0 14v-3.882L3.99 14zm0-7h8v3.099L6.864 8.994 4 11.78 1.136 8.994 0 10.099zm8 7H4.01l.563-.548L8 10.119zm.01-3.892l-.01-.01v.02zm-8.02 0l.01.01v-.02zM4 14.01l.01-.01h-.02z" filter="url(#r3m5i)" mask="url(&quot;#r3m5j&quot;)"/></g><g><path fill="#fff" fill-opacity=".24" d="M-13 18v-31h34v31zM4 2.22l2.864 2.786L8.01 3.892 5.146 1.105 4-.01-.01 3.892l1.146 1.114z" filter="url(#r3m5k)" mask="url(&quot;#r3m5l&quot;)"/><path fill="#bb9c66" d="M1.136 5.006L-.01 3.892 4-.01l1.146 1.114L8.01 3.892 6.864 5.006 4 2.22z"/><path fill="url(#r3m5m)" d="M1.136 5.006L-.01 3.892 4-.01l1.146 1.114L8.01 3.892 6.864 5.006 4 2.22z"/><path fill="#fff" fill-opacity=".24" d="M-13 18v-31h34v31zM4 2.22l2.864 2.786L8.01 3.892 5.146 1.105 4-.01-.01 3.892l1.146 1.114z" filter="url(#r3m5k)" mask="url(&quot;#r3m5l&quot;)"/><path fill="#fff1d8" fill-opacity=".44" d="M0 6V4.901L1.13 6zm0-7h8v5.882L5.146 2.105 4 .99 0 4.882zm8 7H6.87L8 4.902zM4 3.22L6.858 6H1.142zm2.864 2.786L6.871 6h-.013zM8.01 4.892L8 4.882v.02zm-8.02 0l.01.01v-.02zm1.146 1.114L1.142 6H1.13z" filter="url(#r3m5n)" mask="url(&quot;#r3m5o&quot;)"/></g><g><path fill="#fff" fill-opacity=".24" d="M-13 26V-5h34v31zM4.573 12.452L8.01 9.109 6.864 7.994 4 10.78 1.136 7.994-.01 9.108 4 13.01z" filter="url(#r3m5p)" mask="url(&quot;#r3m5q&quot;)"/><path fill="#bb9c66" d="M4 13.01L-.01 9.108l1.146-1.114L4 10.78l2.864-2.786L8.01 9.108l-3.437 3.345z"/><path fill="url(#r3m5r)" d="M4 13.01L-.01 9.108l1.146-1.114L4 10.78l2.864-2.786L8.01 9.108l-3.437 3.345z"/><path fill="#fff" fill-opacity=".24" d="M-13 26V-5h34v31zM4.573 12.452L8.01 9.109 6.864 7.994 4 10.78 1.136 7.994-.01 9.108 4 13.01z" filter="url(#r3m5p)" mask="url(&quot;#r3m5q&quot;)"/><path fill="#fff1d8" fill-opacity=".44" d="M0 14v-3.882L3.99 14zm0-7h8v3.099L6.864 8.994 4 11.78 1.136 8.994 0 10.099zm8 7H4.01l.563-.548L8 10.119zm.01-3.892l-.01-.01v.02zm-8.02 0l.01.01v-.02zM4 14.01l.01-.01h-.02z" filter="url(#r3m5s)" mask="url(&quot;#r3m5t&quot;)"/></g></g></svg>